<?xml version="1.0" encoding="utf-8" standalone="no"?>
<!DOCTYPE svg PUBLIC "-//W3C//DTD SVG 1.1//EN"
  "http://www.w3.org/Graphics/SVG/1.1/DTD/svg11.dtd">
<svg xmlns:xlink="http://www.w3.org/1999/xlink" width="490.219687pt" height="262.19625pt" viewBox="0 0 490.219687 262.19625" xmlns="http://www.w3.org/2000/svg" version="1.1">
 <metadata>
  <rdf:RDF xmlns:dc="http://purl.org/dc/elements/1.1/" xmlns:cc="http://creativecommons.org/ns#" xmlns:rdf="http://www.w3.org/1999/02/22-rdf-syntax-ns#">
   <cc:Work>
    <dc:type rdf:resource="http://purl.org/dc/dcmitype/StillImage"/>
    <dc:date>2023-06-20T00:28:24.651323</dc:date>
    <dc:format>image/svg+xml</dc:format>
    <dc:creator>
     <cc:Agent>
      <dc:title>Matplotlib v3.5.1, https://matplotlib.org/</dc:title>
     </cc:Agent>
    </dc:creator>
   </cc:Work>
  </rdf:RDF>
 </metadata>
 <defs>
  <style type="text/css">*{stroke-linejoin: round; stroke-linecap: butt}</style>
 </defs>
 <g id="figure_1">
  <g id="patch_1">
   <path d="M 0 262.19625 
L 490.219687 262.19625 
L 490.219687 0 
L 0 0 
L 0 262.19625 
z
" style="fill: none"/>
  </g>
  <g id="axes_1">
   <g id="patch_2">
    <path d="M 46.965625 224.64 
L 381.765625 224.64 
L 381.765625 7.2 
L 46.965625 7.2 
z
" style="fill: #ffffff"/>
   </g>
   <g id="matplotlib.axis_1">
    <g id="xtick_1">
     <g id="line2d_1">
      <defs>
       <path id="m70b4b2d2c4" d="M 0 0 
L 0 3.5 
" style="stroke: #000000; stroke-width: 0.8"/>
      </defs>
      <g>
       <use xlink:href="#m70b4b2d2c4" x="62.183807" y="224.64" style="stroke: #000000; stroke-width: 0.8"/>
      </g>
     </g>
     <g id="text_1">
      <!-- 0 -->
      <g transform="translate(59.002557 239.238438)scale(0.1 -0.1)">
       <defs>
        <path id="DejaVuSans-30" d="M 2034 4250 
Q 1547 4250 1301 3770 
Q 1056 3291 1056 2328 
Q 1056 1369 1301 889 
Q 1547 409 2034 409 
Q 2525 409 2770 889 
Q 3016 1369 3016 2328 
Q 3016 3291 2770 3770 
Q 2525 4250 2034 4250 
z
M 2034 4750 
Q 2819 4750 3233 4129 
Q 3647 3509 3647 2328 
Q 3647 1150 3233 529 
Q 2819 -91 2034 -91 
Q 1250 -91 836 529 
Q 422 1150 422 2328 
Q 422 3509 836 4129 
Q 1250 4750 2034 4750 
z
" transform="scale(0.015625)"/>
       </defs>
       <use xlink:href="#DejaVuSans-30"/>
      </g>
     </g>
    </g>
    <g id="xtick_2">
     <g id="line2d_2">
      <g>
       <use xlink:href="#m70b4b2d2c4" x="123.547443" y="224.64" style="stroke: #000000; stroke-width: 0.8"/>
      </g>
     </g>
     <g id="text_2">
      <!-- 200 -->
      <g transform="translate(114.003693 239.238438)scale(0.1 -0.1)">
       <defs>
        <path id="DejaVuSans-32" d="M 1228 531 
L 3431 531 
L 3431 0 
L 469 0 
L 469 531 
Q 828 903 1448 1529 
Q 2069 2156 2228 2338 
Q 2531 2678 2651 2914 
Q 2772 3150 2772 3378 
Q 2772 3750 2511 3984 
Q 2250 4219 1831 4219 
Q 1534 4219 1204 4116 
Q 875 4013 500 3803 
L 500 4441 
Q 881 4594 1212 4672 
Q 1544 4750 1819 4750 
Q 2544 4750 2975 4387 
Q 3406 4025 3406 3419 
Q 3406 3131 3298 2873 
Q 3191 2616 2906 2266 
Q 2828 2175 2409 1742 
Q 1991 1309 1228 531 
z
" transform="scale(0.015625)"/>
       </defs>
       <use xlink:href="#DejaVuSans-32"/>
       <use xlink:href="#DejaVuSans-30" x="63.623047"/>
       <use xlink:href="#DejaVuSans-30" x="127.246094"/>
      </g>
     </g>
    </g>
    <g id="xtick_3">
     <g id="line2d_3">
      <g>
       <use xlink:href="#m70b4b2d2c4" x="184.91108" y="224.64" style="stroke: #000000; stroke-width: 0.8"/>
      </g>
     </g>
     <g id="text_3">
      <!-- 400 -->
      <g transform="translate(175.36733 239.238438)scale(0.1 -0.1)">
       <defs>
        <path id="DejaVuSans-34" d="M 2419 4116 
L 825 1625 
L 2419 1625 
L 2419 4116 
z
M 2253 4666 
L 3047 4666 
L 3047 1625 
L 3713 1625 
L 3713 1100 
L 3047 1100 
L 3047 0 
L 2419 0 
L 2419 1100 
L 313 1100 
L 313 1709 
L 2253 4666 
z
" transform="scale(0.015625)"/>
       </defs>
       <use xlink:href="#DejaVuSans-34"/>
       <use xlink:href="#DejaVuSans-30" x="63.623047"/>
       <use xlink:href="#DejaVuSans-30" x="127.246094"/>
      </g>
     </g>
    </g>
    <g id="xtick_4">
     <g id="line2d_4">
      <g>
       <use xlink:href="#m70b4b2d2c4" x="246.274716" y="224.64" style="stroke: #000000; stroke-width: 0.8"/>
      </g>
     </g>
     <g id="text_4">
      <!-- 600 -->
      <g transform="translate(236.730966 239.238438)scale(0.1 -0.1)">
       <defs>
        <path id="DejaVuSans-36" d="M 2113 2584 
Q 1688 2584 1439 2293 
Q 1191 2003 1191 1497 
Q 1191 994 1439 701 
Q 1688 409 2113 409 
Q 2538 409 2786 701 
Q 3034 994 3034 1497 
Q 3034 2003 2786 2293 
Q 2538 2584 2113 2584 
z
M 3366 4563 
L 3366 3988 
Q 3128 4100 2886 4159 
Q 2644 4219 2406 4219 
Q 1781 4219 1451 3797 
Q 1122 3375 1075 2522 
Q 1259 2794 1537 2939 
Q 1816 3084 2150 3084 
Q 2853 3084 3261 2657 
Q 3669 2231 3669 1497 
Q 3669 778 3244 343 
Q 2819 -91 2113 -91 
Q 1303 -91 875 529 
Q 447 1150 447 2328 
Q 447 3434 972 4092 
Q 1497 4750 2381 4750 
Q 2619 4750 2861 4703 
Q 3103 4656 3366 4563 
z
" transform="scale(0.015625)"/>
       </defs>
       <use xlink:href="#DejaVuSans-36"/>
       <use xlink:href="#DejaVuSans-30" x="63.623047"/>
       <use xlink:href="#DejaVuSans-30" x="127.246094"/>
      </g>
     </g>
    </g>
    <g id="xtick_5">
     <g id="line2d_5">
      <g>
       <use xlink:href="#m70b4b2d2c4" x="307.638352" y="224.64" style="stroke: #000000; stroke-width: 0.8"/>
      </g>
     </g>
     <g id="text_5">
      <!-- 800 -->
      <g transform="translate(298.094602 239.238438)scale(0.1 -0.1)">
       <defs>
        <path id="DejaVuSans-38" d="M 2034 2216 
Q 1584 2216 1326 1975 
Q 1069 1734 1069 1313 
Q 1069 891 1326 650 
Q 1584 409 2034 409 
Q 2484 409 2743 651 
Q 3003 894 3003 1313 
Q 3003 1734 2745 1975 
Q 2488 2216 2034 2216 
z
M 1403 2484 
Q 997 2584 770 2862 
Q 544 3141 544 3541 
Q 544 4100 942 4425 
Q 1341 4750 2034 4750 
Q 2731 4750 3128 4425 
Q 3525 4100 3525 3541 
Q 3525 3141 3298 2862 
Q 3072 2584 2669 2484 
Q 3125 2378 3379 2068 
Q 3634 1759 3634 1313 
Q 3634 634 3220 271 
Q 2806 -91 2034 -91 
Q 1263 -91 848 271 
Q 434 634 434 1313 
Q 434 1759 690 2068 
Q 947 2378 1403 2484 
z
M 1172 3481 
Q 1172 3119 1398 2916 
Q 1625 2713 2034 2713 
Q 2441 2713 2670 2916 
Q 2900 3119 2900 3481 
Q 2900 3844 2670 4047 
Q 2441 4250 2034 4250 
Q 1625 4250 1398 4047 
Q 1172 3844 1172 3481 
z
" transform="scale(0.015625)"/>
       </defs>
       <use xlink:href="#DejaVuSans-38"/>
       <use xlink:href="#DejaVuSans-30" x="63.623047"/>
       <use xlink:href="#DejaVuSans-30" x="127.246094"/>
      </g>
     </g>
    </g>
    <g id="xtick_6">
     <g id="line2d_6">
      <g>
       <use xlink:href="#m70b4b2d2c4" x="369.001989" y="224.64" style="stroke: #000000; stroke-width: 0.8"/>
      </g>
     </g>
     <g id="text_6">
      <!-- 1000 -->
      <g transform="translate(356.276989 239.238438)scale(0.1 -0.1)">
       <defs>
        <path id="DejaVuSans-31" d="M 794 531 
L 1825 531 
L 1825 4091 
L 703 3866 
L 703 4441 
L 1819 4666 
L 2450 4666 
L 2450 531 
L 3481 531 
L 3481 0 
L 794 0 
L 794 531 
z
" transform="scale(0.015625)"/>
       </defs>
       <use xlink:href="#DejaVuSans-31"/>
       <use xlink:href="#DejaVuSans-30" x="63.623047"/>
       <use xlink:href="#DejaVuSans-30" x="127.246094"/>
       <use xlink:href="#DejaVuSans-30" x="190.869141"/>
      </g>
     </g>
    </g>
    <g id="text_7">
     <!-- Time in Seconds -->
     <g transform="translate(173.389063 252.916563)scale(0.1 -0.1)">
      <defs>
       <path id="DejaVuSans-54" d="M -19 4666 
L 3928 4666 
L 3928 4134 
L 2272 4134 
L 2272 0 
L 1638 0 
L 1638 4134 
L -19 4134 
L -19 4666 
z
" transform="scale(0.015625)"/>
       <path id="DejaVuSans-69" d="M 603 3500 
L 1178 3500 
L 1178 0 
L 603 0 
L 603 3500 
z
M 603 4863 
L 1178 4863 
L 1178 4134 
L 603 4134 
L 603 4863 
z
" transform="scale(0.015625)"/>
       <path id="DejaVuSans-6d" d="M 3328 2828 
Q 3544 3216 3844 3400 
Q 4144 3584 4550 3584 
Q 5097 3584 5394 3201 
Q 5691 2819 5691 2113 
L 5691 0 
L 5113 0 
L 5113 2094 
Q 5113 2597 4934 2840 
Q 4756 3084 4391 3084 
Q 3944 3084 3684 2787 
Q 3425 2491 3425 1978 
L 3425 0 
L 2847 0 
L 2847 2094 
Q 2847 2600 2669 2842 
Q 2491 3084 2119 3084 
Q 1678 3084 1418 2786 
Q 1159 2488 1159 1978 
L 1159 0 
L 581 0 
L 581 3500 
L 1159 3500 
L 1159 2956 
Q 1356 3278 1631 3431 
Q 1906 3584 2284 3584 
Q 2666 3584 2933 3390 
Q 3200 3197 3328 2828 
z
" transform="scale(0.015625)"/>
       <path id="DejaVuSans-65" d="M 3597 1894 
L 3597 1613 
L 953 1613 
Q 991 1019 1311 708 
Q 1631 397 2203 397 
Q 2534 397 2845 478 
Q 3156 559 3463 722 
L 3463 178 
Q 3153 47 2828 -22 
Q 2503 -91 2169 -91 
Q 1331 -91 842 396 
Q 353 884 353 1716 
Q 353 2575 817 3079 
Q 1281 3584 2069 3584 
Q 2775 3584 3186 3129 
Q 3597 2675 3597 1894 
z
M 3022 2063 
Q 3016 2534 2758 2815 
Q 2500 3097 2075 3097 
Q 1594 3097 1305 2825 
Q 1016 2553 972 2059 
L 3022 2063 
z
" transform="scale(0.015625)"/>
       <path id="DejaVuSans-20" transform="scale(0.015625)"/>
       <path id="DejaVuSans-6e" d="M 3513 2113 
L 3513 0 
L 2938 0 
L 2938 2094 
Q 2938 2591 2744 2837 
Q 2550 3084 2163 3084 
Q 1697 3084 1428 2787 
Q 1159 2491 1159 1978 
L 1159 0 
L 581 0 
L 581 3500 
L 1159 3500 
L 1159 2956 
Q 1366 3272 1645 3428 
Q 1925 3584 2291 3584 
Q 2894 3584 3203 3211 
Q 3513 2838 3513 2113 
z
" transform="scale(0.015625)"/>
       <path id="DejaVuSans-53" d="M 3425 4513 
L 3425 3897 
Q 3066 4069 2747 4153 
Q 2428 4238 2131 4238 
Q 1616 4238 1336 4038 
Q 1056 3838 1056 3469 
Q 1056 3159 1242 3001 
Q 1428 2844 1947 2747 
L 2328 2669 
Q 3034 2534 3370 2195 
Q 3706 1856 3706 1288 
Q 3706 609 3251 259 
Q 2797 -91 1919 -91 
Q 1588 -91 1214 -16 
Q 841 59 441 206 
L 441 856 
Q 825 641 1194 531 
Q 1563 422 1919 422 
Q 2459 422 2753 634 
Q 3047 847 3047 1241 
Q 3047 1584 2836 1778 
Q 2625 1972 2144 2069 
L 1759 2144 
Q 1053 2284 737 2584 
Q 422 2884 422 3419 
Q 422 4038 858 4394 
Q 1294 4750 2059 4750 
Q 2388 4750 2728 4690 
Q 3069 4631 3425 4513 
z
" transform="scale(0.015625)"/>
       <path id="DejaVuSans-63" d="M 3122 3366 
L 3122 2828 
Q 2878 2963 2633 3030 
Q 2388 3097 2138 3097 
Q 1578 3097 1268 2742 
Q 959 2388 959 1747 
Q 959 1106 1268 751 
Q 1578 397 2138 397 
Q 2388 397 2633 464 
Q 2878 531 3122 666 
L 3122 134 
Q 2881 22 2623 -34 
Q 2366 -91 2075 -91 
Q 1284 -91 818 406 
Q 353 903 353 1747 
Q 353 2603 823 3093 
Q 1294 3584 2113 3584 
Q 2378 3584 2631 3529 
Q 2884 3475 3122 3366 
z
" transform="scale(0.015625)"/>
       <path id="DejaVuSans-6f" d="M 1959 3097 
Q 1497 3097 1228 2736 
Q 959 2375 959 1747 
Q 959 1119 1226 758 
Q 1494 397 1959 397 
Q 2419 397 2687 759 
Q 2956 1122 2956 1747 
Q 2956 2369 2687 2733 
Q 2419 3097 1959 3097 
z
M 1959 3584 
Q 2709 3584 3137 3096 
Q 3566 2609 3566 1747 
Q 3566 888 3137 398 
Q 2709 -91 1959 -91 
Q 1206 -91 779 398 
Q 353 888 353 1747 
Q 353 2609 779 3096 
Q 1206 3584 1959 3584 
z
" transform="scale(0.015625)"/>
       <path id="DejaVuSans-64" d="M 2906 2969 
L 2906 4863 
L 3481 4863 
L 3481 0 
L 2906 0 
L 2906 525 
Q 2725 213 2448 61 
Q 2172 -91 1784 -91 
Q 1150 -91 751 415 
Q 353 922 353 1747 
Q 353 2572 751 3078 
Q 1150 3584 1784 3584 
Q 2172 3584 2448 3432 
Q 2725 3281 2906 2969 
z
M 947 1747 
Q 947 1113 1208 752 
Q 1469 391 1925 391 
Q 2381 391 2643 752 
Q 2906 1113 2906 1747 
Q 2906 2381 2643 2742 
Q 2381 3103 1925 3103 
Q 1469 3103 1208 2742 
Q 947 2381 947 1747 
z
" transform="scale(0.015625)"/>
       <path id="DejaVuSans-73" d="M 2834 3397 
L 2834 2853 
Q 2591 2978 2328 3040 
Q 2066 3103 1784 3103 
Q 1356 3103 1142 2972 
Q 928 2841 928 2578 
Q 928 2378 1081 2264 
Q 1234 2150 1697 2047 
L 1894 2003 
Q 2506 1872 2764 1633 
Q 3022 1394 3022 966 
Q 3022 478 2636 193 
Q 2250 -91 1575 -91 
Q 1294 -91 989 -36 
Q 684 19 347 128 
L 347 722 
Q 666 556 975 473 
Q 1284 391 1588 391 
Q 1994 391 2212 530 
Q 2431 669 2431 922 
Q 2431 1156 2273 1281 
Q 2116 1406 1581 1522 
L 1381 1569 
Q 847 1681 609 1914 
Q 372 2147 372 2553 
Q 372 3047 722 3315 
Q 1072 3584 1716 3584 
Q 2034 3584 2315 3537 
Q 2597 3491 2834 3397 
z
" transform="scale(0.015625)"/>
      </defs>
      <use xlink:href="#DejaVuSans-54"/>
      <use xlink:href="#DejaVuSans-69" x="57.958984"/>
      <use xlink:href="#DejaVuSans-6d" x="85.742188"/>
      <use xlink:href="#DejaVuSans-65" x="183.154297"/>
      <use xlink:href="#DejaVuSans-20" x="244.677734"/>
      <use xlink:href="#DejaVuSans-69" x="276.464844"/>
      <use xlink:href="#DejaVuSans-6e" x="304.248047"/>
      <use xlink:href="#DejaVuSans-20" x="367.626953"/>
      <use xlink:href="#DejaVuSans-53" x="399.414062"/>
      <use xlink:href="#DejaVuSans-65" x="462.890625"/>
      <use xlink:href="#DejaVuSans-63" x="524.414062"/>
      <use xlink:href="#DejaVuSans-6f" x="579.394531"/>
      <use xlink:href="#DejaVuSans-6e" x="640.576172"/>
      <use xlink:href="#DejaVuSans-64" x="703.955078"/>
      <use xlink:href="#DejaVuSans-73" x="767.431641"/>
     </g>
    </g>
   </g>
   <g id="matplotlib.axis_2">
    <g id="ytick_1">
     <g id="line2d_7">
      <defs>
       <path id="m34564e4758" d="M 0 0 
L -3.5 0 
" style="stroke: #000000; stroke-width: 0.8"/>
      </defs>
      <g>
       <use xlink:href="#m34564e4758" x="46.965625" y="223.926748" style="stroke: #000000; stroke-width: 0.8"/>
      </g>
     </g>
     <g id="text_8">
      <!-- 0 -->
      <g transform="translate(33.603125 227.725967)scale(0.1 -0.1)">
       <use xlink:href="#DejaVuSans-30"/>
      </g>
     </g>
    </g>
    <g id="ytick_2">
     <g id="line2d_8">
      <g>
       <use xlink:href="#m34564e4758" x="46.965625" y="181.471265" style="stroke: #000000; stroke-width: 0.8"/>
      </g>
     </g>
     <g id="text_9">
      <!-- 50 -->
      <g transform="translate(27.240625 185.270484)scale(0.1 -0.1)">
       <defs>
        <path id="DejaVuSans-35" d="M 691 4666 
L 3169 4666 
L 3169 4134 
L 1269 4134 
L 1269 2991 
Q 1406 3038 1543 3061 
Q 1681 3084 1819 3084 
Q 2600 3084 3056 2656 
Q 3513 2228 3513 1497 
Q 3513 744 3044 326 
Q 2575 -91 1722 -91 
Q 1428 -91 1123 -41 
Q 819 9 494 109 
L 494 744 
Q 775 591 1075 516 
Q 1375 441 1709 441 
Q 2250 441 2565 725 
Q 2881 1009 2881 1497 
Q 2881 1984 2565 2268 
Q 2250 2553 1709 2553 
Q 1456 2553 1204 2497 
Q 953 2441 691 2322 
L 691 4666 
z
" transform="scale(0.015625)"/>
       </defs>
       <use xlink:href="#DejaVuSans-35"/>
       <use xlink:href="#DejaVuSans-30" x="63.623047"/>
      </g>
     </g>
    </g>
    <g id="ytick_3">
     <g id="line2d_9">
      <g>
       <use xlink:href="#m34564e4758" x="46.965625" y="139.015783" style="stroke: #000000; stroke-width: 0.8"/>
      </g>
     </g>
     <g id="text_10">
      <!-- 100 -->
      <g transform="translate(20.878125 142.815001)scale(0.1 -0.1)">
       <use xlink:href="#DejaVuSans-31"/>
       <use xlink:href="#DejaVuSans-30" x="63.623047"/>
       <use xlink:href="#DejaVuSans-30" x="127.246094"/>
      </g>
     </g>
    </g>
    <g id="ytick_4">
     <g id="line2d_10">
      <g>
       <use xlink:href="#m34564e4758" x="46.965625" y="96.5603" style="stroke: #000000; stroke-width: 0.8"/>
      </g>
     </g>
     <g id="text_11">
      <!-- 150 -->
      <g transform="translate(20.878125 100.359519)scale(0.1 -0.1)">
       <use xlink:href="#DejaVuSans-31"/>
       <use xlink:href="#DejaVuSans-35" x="63.623047"/>
       <use xlink:href="#DejaVuSans-30" x="127.246094"/>
      </g>
     </g>
    </g>
    <g id="ytick_5">
     <g id="line2d_11">
      <g>
       <use xlink:href="#m34564e4758" x="46.965625" y="54.104817" style="stroke: #000000; stroke-width: 0.8"/>
      </g>
     </g>
     <g id="text_12">
      <!-- 200 -->
      <g transform="translate(20.878125 57.904036)scale(0.1 -0.1)">
       <use xlink:href="#DejaVuSans-32"/>
       <use xlink:href="#DejaVuSans-30" x="63.623047"/>
       <use xlink:href="#DejaVuSans-30" x="127.246094"/>
      </g>
     </g>
    </g>
    <g id="ytick_6">
     <g id="line2d_12">
      <g>
       <use xlink:href="#m34564e4758" x="46.965625" y="11.649335" style="stroke: #000000; stroke-width: 0.8"/>
      </g>
     </g>
     <g id="text_13">
      <!-- 250 -->
      <g transform="translate(20.878125 15.448553)scale(0.1 -0.1)">
       <use xlink:href="#DejaVuSans-32"/>
       <use xlink:href="#DejaVuSans-35" x="63.623047"/>
       <use xlink:href="#DejaVuSans-30" x="127.246094"/>
      </g>
     </g>
    </g>
    <g id="text_14">
     <!-- Power in Watts -->
     <g transform="translate(14.798438 152.984063)rotate(-90)scale(0.1 -0.1)">
      <defs>
       <path id="DejaVuSans-50" d="M 1259 4147 
L 1259 2394 
L 2053 2394 
Q 2494 2394 2734 2622 
Q 2975 2850 2975 3272 
Q 2975 3691 2734 3919 
Q 2494 4147 2053 4147 
L 1259 4147 
z
M 628 4666 
L 2053 4666 
Q 2838 4666 3239 4311 
Q 3641 3956 3641 3272 
Q 3641 2581 3239 2228 
Q 2838 1875 2053 1875 
L 1259 1875 
L 1259 0 
L 628 0 
L 628 4666 
z
" transform="scale(0.015625)"/>
       <path id="DejaVuSans-77" d="M 269 3500 
L 844 3500 
L 1563 769 
L 2278 3500 
L 2956 3500 
L 3675 769 
L 4391 3500 
L 4966 3500 
L 4050 0 
L 3372 0 
L 2619 2869 
L 1863 0 
L 1184 0 
L 269 3500 
z
" transform="scale(0.015625)"/>
       <path id="DejaVuSans-72" d="M 2631 2963 
Q 2534 3019 2420 3045 
Q 2306 3072 2169 3072 
Q 1681 3072 1420 2755 
Q 1159 2438 1159 1844 
L 1159 0 
L 581 0 
L 581 3500 
L 1159 3500 
L 1159 2956 
Q 1341 3275 1631 3429 
Q 1922 3584 2338 3584 
Q 2397 3584 2469 3576 
Q 2541 3569 2628 3553 
L 2631 2963 
z
" transform="scale(0.015625)"/>
       <path id="DejaVuSans-57" d="M 213 4666 
L 850 4666 
L 1831 722 
L 2809 4666 
L 3519 4666 
L 4500 722 
L 5478 4666 
L 6119 4666 
L 4947 0 
L 4153 0 
L 3169 4050 
L 2175 0 
L 1381 0 
L 213 4666 
z
" transform="scale(0.015625)"/>
       <path id="DejaVuSans-61" d="M 2194 1759 
Q 1497 1759 1228 1600 
Q 959 1441 959 1056 
Q 959 750 1161 570 
Q 1363 391 1709 391 
Q 2188 391 2477 730 
Q 2766 1069 2766 1631 
L 2766 1759 
L 2194 1759 
z
M 3341 1997 
L 3341 0 
L 2766 0 
L 2766 531 
Q 2569 213 2275 61 
Q 1981 -91 1556 -91 
Q 1019 -91 701 211 
Q 384 513 384 1019 
Q 384 1609 779 1909 
Q 1175 2209 1959 2209 
L 2766 2209 
L 2766 2266 
Q 2766 2663 2505 2880 
Q 2244 3097 1772 3097 
Q 1472 3097 1187 3025 
Q 903 2953 641 2809 
L 641 3341 
Q 956 3463 1253 3523 
Q 1550 3584 1831 3584 
Q 2591 3584 2966 3190 
Q 3341 2797 3341 1997 
z
" transform="scale(0.015625)"/>
       <path id="DejaVuSans-74" d="M 1172 4494 
L 1172 3500 
L 2356 3500 
L 2356 3053 
L 1172 3053 
L 1172 1153 
Q 1172 725 1289 603 
Q 1406 481 1766 481 
L 2356 481 
L 2356 0 
L 1766 0 
Q 1100 0 847 248 
Q 594 497 594 1153 
L 594 3053 
L 172 3053 
L 172 3500 
L 594 3500 
L 594 4494 
L 1172 4494 
z
" transform="scale(0.015625)"/>
      </defs>
      <use xlink:href="#DejaVuSans-50"/>
      <use xlink:href="#DejaVuSans-6f" x="56.677734"/>
      <use xlink:href="#DejaVuSans-77" x="117.859375"/>
      <use xlink:href="#DejaVuSans-65" x="199.646484"/>
      <use xlink:href="#DejaVuSans-72" x="261.169922"/>
      <use xlink:href="#DejaVuSans-20" x="302.283203"/>
      <use xlink:href="#DejaVuSans-69" x="334.070312"/>
      <use xlink:href="#DejaVuSans-6e" x="361.853516"/>
      <use xlink:href="#DejaVuSans-20" x="425.232422"/>
      <use xlink:href="#DejaVuSans-57" x="457.019531"/>
      <use xlink:href="#DejaVuSans-61" x="549.521484"/>
      <use xlink:href="#DejaVuSans-74" x="610.800781"/>
      <use xlink:href="#DejaVuSans-74" x="650.009766"/>
      <use xlink:href="#DejaVuSans-73" x="689.21875"/>
     </g>
    </g>
   </g>
   <g id="line2d_13">
    <path d="M 62.183807 114.051959 
L 62.490625 128.062268 
L 64.331534 128.486823 
L 65.558807 128.571734 
L 65.865625 128.656645 
L 66.479261 128.571734 
L 72.308807 128.571734 
L 72.922443 77.710066 
L 73.229261 69.049147 
L 73.53608 81.021593 
L 73.842898 67.266017 
L 74.149716 80.936682 
L 74.456534 54.869016 
L 75.07017 67.945305 
L 75.376989 79.578107 
L 75.683807 71.93612 
L 75.990625 17.083636 
L 76.604261 36.188604 
L 76.91108 36.273515 
L 77.217898 36.103693 
L 78.751989 36.018782 
L 79.672443 35.594227 
L 82.433807 34.745117 
L 83.047443 34.490384 
L 83.967898 34.15074 
L 84.581534 33.896007 
L 84.888352 33.896007 
L 85.19517 33.726186 
L 85.808807 33.641275 
L 88.57017 32.961987 
L 89.183807 32.877076 
L 92.251989 32.112877 
L 93.479261 32.027966 
L 94.092898 31.943055 
L 97.467898 31.858144 
L 98.081534 31.773233 
L 99.922443 31.688322 
L 100.53608 31.603411 
L 101.149716 31.688322 
L 105.751989 31.603411 
L 106.979261 31.348679 
L 107.899716 31.263768 
L 108.513352 31.178857 
L 114.342898 31.093946 
L 114.956534 31.009035 
L 129.376989 30.924124 
L 129.990625 30.839213 
L 135.206534 30.924124 
L 135.82017 31.009035 
L 138.888352 30.924124 
L 139.501989 30.839213 
L 146.251989 30.924124 
L 146.558807 31.009035 
L 147.172443 30.924124 
L 217.433807 30.924124 
L 217.740625 31.263768 
L 218.354261 121.269391 
L 219.274716 121.439213 
L 219.581534 105.985417 
L 219.888352 127.637713 
L 220.19517 127.637713 
L 220.501989 111.50463 
L 220.808807 76.011846 
L 221.115625 64.124311 
L 221.729261 63.445023 
L 222.03608 51.387666 
L 222.649716 77.030778 
L 222.956534 36.358425 
L 223.263352 19.376232 
L 223.57017 33.811097 
L 223.876989 33.980918 
L 224.183807 33.980918 
L 224.490625 34.320562 
L 225.717898 34.914939 
L 226.331534 34.99985 
L 227.865625 34.914939 
L 234.001989 33.301631 
L 234.308807 33.301631 
L 234.615625 33.131809 
L 234.922443 33.131809 
L 235.229261 32.961987 
L 235.842898 32.877076 
L 236.763352 32.707254 
L 237.376989 32.622343 
L 238.297443 32.452521 
L 239.217898 32.452521 
L 239.831534 32.197788 
L 240.44517 32.112877 
L 241.672443 31.858144 
L 244.740625 31.773233 
L 245.047443 31.688322 
L 245.354261 31.773233 
L 245.967898 31.688322 
L 246.581534 31.773233 
L 247.19517 31.688322 
L 253.331534 31.603411 
L 253.638352 31.5185 
L 253.94517 31.603411 
L 254.251989 31.5185 
L 254.558807 31.603411 
L 254.865625 31.5185 
L 255.172443 31.603411 
L 256.706534 31.263768 
L 258.547443 31.178857 
L 259.16108 31.093946 
L 281.251989 31.009035 
L 281.558807 30.924124 
L 281.865625 31.009035 
L 282.479261 30.924124 
L 365.013352 30.839213 
L 365.32017 36.188604 
L 365.626989 88.239025 
L 365.933807 121.014658 
L 366.547443 121.099569 
L 366.547443 121.099569 
" clip-path="url(#p7e9a624115)" style="fill: none; stroke: #1f77b4; stroke-width: 1.5; stroke-linecap: square"/>
   </g>
   <g id="line2d_14">
    <path d="M 62.183807 172.360319 
L 62.490625 174.321762 
L 62.797443 174.338744 
L 63.104261 174.117976 
L 63.41108 174.483093 
L 63.717898 171.528191 
L 64.024716 160.642605 
L 64.331534 174.321762 
L 64.638352 174.185904 
L 65.251989 174.593477 
L 65.865625 174.296289 
L 66.479261 174.534039 
L 66.78608 174.364217 
L 67.399716 174.372709 
L 67.706534 174.517057 
L 68.013352 174.262324 
L 68.626989 174.355726 
L 69.240625 174.287798 
L 69.547443 174.525548 
L 69.854261 174.211378 
L 70.16108 174.313271 
L 70.467898 174.559513 
L 70.774716 174.177413 
L 71.081534 174.287798 
L 71.388352 174.610459 
L 71.69517 174.355726 
L 72.001989 174.338744 
L 72.308807 174.483093 
L 72.615625 174.449128 
L 72.922443 174.253833 
L 73.229261 174.398182 
L 74.149716 174.211378 
L 74.456534 161.568135 
L 74.763352 132.282343 
L 75.07017 123.66388 
L 75.376989 130.176551 
L 75.683807 124.996982 
L 75.990625 132.290834 
L 76.297443 114.824649 
L 76.604261 113.822699 
L 77.217898 128.546261 
L 77.524716 136.578838 
L 77.831534 82.405642 
L 78.138352 86.286073 
L 78.44517 95.651753 
L 78.751989 96.297076 
L 79.058807 96.229147 
L 79.672443 96.704649 
L 79.979261 96.653702 
L 80.28608 96.398969 
L 80.592898 95.923468 
L 80.899716 95.965923 
L 81.206534 96.220656 
L 81.513352 95.991396 
L 82.126989 96.237638 
L 82.740625 95.78761 
L 83.047443 95.991396 
L 83.354261 95.847048 
L 83.967898 95.897994 
L 84.274716 95.796101 
L 84.888352 95.813083 
L 85.19517 95.779119 
L 85.501989 95.592315 
L 85.808807 95.702699 
L 86.115625 95.549859 
L 86.422443 95.86403 
L 87.03608 95.583824 
L 87.342898 95.847048 
L 87.649716 95.456457 
L 88.263352 95.643261 
L 88.57017 95.388529 
L 88.876989 95.728172 
L 89.183807 95.498913 
L 89.490625 95.668735 
L 90.41108 95.583824 
L 91.638352 95.532877 
L 91.94517 95.668735 
L 92.251989 95.439475 
L 92.558807 95.600806 
L 92.865625 95.3206 
L 93.172443 95.541368 
L 93.479261 95.515895 
L 93.78608 95.312109 
L 94.092898 95.592315 
L 94.399716 95.295127 
L 94.706534 95.558351 
L 95.32017 95.380037 
L 96.547443 95.422493 
L 97.467898 95.566842 
L 97.774716 95.405511 
L 100.229261 95.515895 
L 100.53608 95.227198 
L 101.149716 95.346073 
L 101.456534 95.405511 
L 102.07017 95.278144 
L 102.376989 95.447966 
L 102.683807 95.261162 
L 102.990625 95.430984 
L 103.297443 95.337582 
L 103.604261 95.490422 
L 104.217898 95.337582 
L 104.524716 95.583824 
L 104.831534 95.278144 
L 105.138352 95.193233 
L 105.44517 95.388529 
L 108.513352 95.227198 
L 108.82017 95.329091 
L 109.433807 95.261162 
L 109.740625 95.354564 
L 110.967898 95.193233 
L 111.274716 95.337582 
L 112.808807 95.312109 
L 113.115625 95.312109 
L 113.422443 95.430984 
L 113.729261 95.24418 
L 114.956534 95.193233 
L 115.263352 95.414002 
L 115.57017 95.235689 
L 115.876989 95.346073 
L 116.490625 95.286635 
L 117.717898 95.210216 
L 118.024716 95.346073 
L 118.331534 95.329091 
L 118.638352 95.116813 
L 118.94517 95.354564 
L 119.558807 95.235689 
L 120.172443 95.3206 
L 120.479261 95.210216 
L 121.092898 95.303618 
L 121.399716 95.388529 
L 121.706534 95.218707 
L 122.32017 95.456457 
L 122.626989 95.303618 
L 122.933807 95.447966 
L 123.547443 95.24418 
L 124.16108 95.609297 
L 124.467898 95.354564 
L 124.774716 95.286635 
L 125.081534 95.39702 
L 125.388352 95.269653 
L 126.615625 95.515895 
L 126.922443 95.24418 
L 127.229261 95.524386 
L 127.53608 95.193233 
L 127.842898 95.481931 
L 128.149716 95.184742 
L 128.456534 95.354564 
L 129.376989 95.261162 
L 129.683807 95.371546 
L 129.990625 95.193233 
L 130.297443 95.414002 
L 130.604261 95.456457 
L 130.91108 95.363055 
L 131.217898 94.879063 
L 131.524716 95.405511 
L 132.138352 95.184742 
L 132.44517 95.414002 
L 132.751989 95.346073 
L 133.058807 95.422493 
L 133.365625 95.337582 
L 133.979261 95.498913 
L 134.592898 95.312109 
L 135.82017 95.422493 
L 136.433807 95.337582 
L 136.740625 95.456457 
L 138.274716 95.227198 
L 138.888352 95.278144 
L 140.422443 95.193233 
L 140.729261 95.227198 
L 141.03608 95.09134 
L 141.649716 95.261162 
L 141.956534 95.150778 
L 142.263352 95.286635 
L 142.57017 95.218707 
L 143.183807 95.269653 
L 143.490625 95.125305 
L 143.797443 95.218707 
L 144.104261 95.184742 
L 144.41108 95.269653 
L 144.717898 95.133796 
L 145.024716 95.235689 
L 145.331534 95.176251 
L 146.251989 95.447966 
L 146.865625 95.337582 
L 148.092898 95.142287 
L 148.399716 95.3206 
L 149.013352 95.218707 
L 149.32017 95.329091 
L 149.626989 95.252671 
L 149.933807 95.39702 
L 151.467898 95.303618 
L 151.774716 95.24418 
L 152.081534 95.303618 
L 152.388352 95.099831 
L 152.69517 95.39702 
L 153.001989 95.218707 
L 153.308807 95.184742 
L 153.615625 95.303618 
L 153.922443 95.201724 
L 154.229261 95.24418 
L 154.53608 95.057376 
L 154.842898 95.337582 
L 155.149716 95.108322 
L 155.763352 95.176251 
L 156.07017 95.116813 
L 156.376989 95.227198 
L 156.683807 95.133796 
L 157.604261 95.278144 
L 157.91108 95.142287 
L 158.217898 95.329091 
L 158.524716 95.09134 
L 158.831534 95.235689 
L 159.44517 95.125305 
L 159.751989 95.295127 
L 160.058807 95.108322 
L 160.672443 95.159269 
L 163.740625 95.312109 
L 164.047443 95.133796 
L 164.354261 95.116813 
L 164.66108 95.303618 
L 164.967898 95.057376 
L 165.581534 95.261162 
L 165.888352 95.057376 
L 166.501989 95.286635 
L 166.808807 95.142287 
L 167.115625 95.278144 
L 167.422443 95.142287 
L 167.729261 95.337582 
L 168.03608 95.184742 
L 168.649716 95.125305 
L 168.956534 95.116813 
L 169.263352 95.252671 
L 169.57017 95.16776 
L 169.876989 95.312109 
L 170.183807 95.278144 
L 170.490625 95.065867 
L 170.797443 95.371546 
L 171.41108 95.082849 
L 171.717898 95.269653 
L 172.331534 95.218707 
L 172.638352 95.116813 
L 173.251989 95.193233 
L 173.558807 94.989447 
L 174.78608 95.354564 
L 175.092898 95.159269 
L 175.399716 95.312109 
L 175.706534 95.057376 
L 176.013352 95.218707 
L 177.547443 95.16776 
L 178.16108 95.133796 
L 178.467898 95.278144 
L 178.774716 95.108322 
L 179.081534 95.295127 
L 179.388352 95.142287 
L 179.69517 95.3206 
L 180.001989 95.269653 
L 180.308807 95.074358 
L 180.615625 95.286635 
L 181.229261 95.074358 
L 181.53608 95.286635 
L 181.842898 95.031903 
L 182.149716 95.24418 
L 183.07017 95.099831 
L 183.376989 95.227198 
L 184.91108 95.125305 
L 185.217898 95.3206 
L 185.831534 95.261162 
L 186.751989 95.286635 
L 187.058807 95.337582 
L 187.365625 95.150778 
L 188.28608 95.286635 
L 188.592898 95.099831 
L 188.899716 95.312109 
L 189.513352 95.201724 
L 189.82017 95.261162 
L 190.126989 95.125305 
L 190.740625 95.295127 
L 191.047443 95.125305 
L 191.354261 95.210216 
L 191.66108 95.108322 
L 191.967898 95.201724 
L 192.274716 95.031903 
L 192.581534 95.176251 
L 192.888352 95.125305 
L 193.19517 95.218707 
L 193.808807 95.142287 
L 194.422443 95.218707 
L 194.729261 95.108322 
L 195.03608 95.227198 
L 195.956534 95.006429 
L 196.263352 95.176251 
L 197.490625 95.099831 
L 197.797443 95.295127 
L 198.104261 95.193233 
L 198.41108 95.337582 
L 198.717898 95.218707 
L 199.024716 95.269653 
L 199.331534 95.184742 
L 200.251989 95.269653 
L 200.558807 95.16776 
L 200.865625 95.184742 
L 201.172443 95.354564 
L 201.479261 95.346073 
L 201.78608 95.125305 
L 202.399716 95.286635 
L 202.706534 95.16776 
L 203.013352 94.921518 
L 203.32017 95.269653 
L 204.240625 95.346073 
L 204.547443 95.210216 
L 206.388352 95.261162 
L 206.69517 95.201724 
L 207.001989 95.269653 
L 207.308807 95.218707 
L 207.615625 95.329091 
L 208.229261 95.176251 
L 208.53608 95.388529 
L 208.842898 95.388529 
L 209.149716 95.218707 
L 209.456534 95.414002 
L 209.763352 95.159269 
L 210.07017 95.3206 
L 210.376989 95.227198 
L 210.683807 95.286635 
L 210.990625 95.099831 
L 211.297443 95.388529 
L 211.604261 95.108322 
L 211.91108 95.286635 
L 212.524716 95.201724 
L 216.513352 95.176251 
L 216.82017 95.329091 
L 217.126989 95.116813 
L 217.740625 95.24418 
L 218.047443 95.023411 
L 218.354261 95.312109 
L 218.66108 95.057376 
L 218.967898 95.150778 
L 219.274716 107.853458 
L 219.581534 172.716945 
L 219.888352 174.287798 
L 220.19517 156.787648 
L 220.501989 172.13955 
L 220.808807 174.372709 
L 221.115625 172.98866 
L 221.422443 133.403168 
L 221.729261 121.846785 
L 222.03608 116.556832 
L 222.342898 117.923899 
L 222.649716 109.330909 
L 222.956534 118.08523 
L 223.263352 121.736401 
L 223.57017 115.860562 
L 223.876989 81.182924 
L 224.183807 90.930703 
L 224.490625 95.694208 
L 224.797443 94.505455 
L 225.104261 96.178201 
L 225.41108 96.475389 
L 225.717898 96.585773 
L 226.024716 96.815033 
L 226.638352 95.821575 
L 226.94517 96.101781 
L 227.558807 96.365005 
L 227.865625 96.050834 
L 228.172443 96.339531 
L 228.479261 96.322549 
L 228.78608 96.067816 
L 229.092898 96.169709 
L 229.399716 95.965923 
L 229.706534 96.084799 
L 230.933807 95.728172 
L 231.240625 95.94045 
L 231.547443 95.821575 
L 231.854261 96.09329 
L 232.467898 95.838557 
L 232.774716 95.855539 
L 233.081534 95.71119 
L 233.388352 95.923468 
L 234.001989 95.685717 
L 234.308807 95.719681 
L 234.615625 95.566842 
L 234.922443 95.813083 
L 235.229261 95.677226 
L 235.53608 95.914977 
L 235.842898 95.430984 
L 236.149716 95.63477 
L 236.763352 95.380037 
L 237.07017 95.745155 
L 237.376989 95.39702 
L 237.990625 95.39702 
L 238.604261 95.354564 
L 241.058807 95.380037 
L 241.365625 95.125305 
L 241.672443 95.329091 
L 241.979261 94.989447 
L 242.28608 95.099831 
L 242.592898 95.329091 
L 243.206534 95.082849 
L 243.513352 95.278144 
L 246.581534 95.176251 
L 247.808807 95.278144 
L 248.422443 95.125305 
L 249.342898 95.201724 
L 249.956534 95.133796 
L 251.183807 95.150778 
L 251.797443 95.24418 
L 252.104261 95.108322 
L 253.638352 95.337582 
L 254.251989 95.125305 
L 255.172443 95.3206 
L 255.479261 95.142287 
L 255.78608 95.371546 
L 256.092898 95.159269 
L 256.399716 95.252671 
L 257.013352 95.023411 
L 257.626989 95.430984 
L 257.933807 95.125305 
L 259.467898 95.39702 
L 259.774716 95.227198 
L 260.388352 95.354564 
L 260.69517 95.235689 
L 261.001989 95.380037 
L 261.615625 95.227198 
L 261.922443 95.405511 
L 262.229261 95.176251 
L 263.456534 95.447966 
L 263.763352 95.278144 
L 264.07017 95.464948 
L 264.683807 95.371546 
L 264.990625 95.388529 
L 265.297443 95.524386 
L 265.91108 95.481931 
L 266.217898 95.24418 
L 266.524716 95.261162 
L 266.831534 95.39702 
L 267.138352 95.201724 
L 269.28608 95.312109 
L 270.82017 95.133796 
L 271.126989 95.269653 
L 271.433807 95.125305 
L 271.740625 95.303618 
L 272.047443 95.252671 
L 272.66108 95.447966 
L 273.274716 95.24418 
L 274.808807 95.201724 
L 275.115625 95.354564 
L 275.422443 95.210216 
L 276.03608 95.303618 
L 276.956534 95.176251 
L 277.263352 95.082849 
L 277.57017 95.252671 
L 277.876989 95.057376 
L 278.183807 95.210216 
L 278.490625 95.074358 
L 278.797443 95.210216 
L 279.41108 95.210216 
L 279.717898 95.040394 
L 280.024716 95.24418 
L 280.638352 95.048885 
L 280.94517 95.193233 
L 281.251989 95.023411 
L 281.558807 95.082849 
L 281.865625 94.980956 
L 282.172443 95.235689 
L 283.399716 95.09134 
L 283.706534 95.193233 
L 284.013352 95.176251 
L 284.32017 95.031903 
L 284.626989 95.201724 
L 284.933807 95.142287 
L 285.240625 95.354564 
L 285.547443 95.074358 
L 285.854261 95.218707 
L 286.16108 95.108322 
L 286.467898 95.24418 
L 286.774716 95.048885 
L 287.081534 95.218707 
L 288.001989 95.269653 
L 288.308807 95.074358 
L 289.229261 95.346073 
L 289.53608 95.201724 
L 290.149716 95.125305 
L 290.456534 94.921518 
L 290.763352 95.065867 
L 291.07017 95.023411 
L 291.990625 95.210216 
L 292.297443 95.082849 
L 292.604261 95.3206 
L 292.91108 95.116813 
L 293.217898 95.218707 
L 294.138352 95.150778 
L 294.44517 95.159269 
L 294.751989 95.048885 
L 295.058807 95.184742 
L 296.899716 95.074358 
L 297.206534 95.24418 
L 298.126989 95.142287 
L 298.433807 95.227198 
L 298.740625 95.057376 
L 299.354261 95.108322 
L 299.66108 94.980956 
L 299.967898 95.201724 
L 300.274716 95.099831 
L 300.581534 95.235689 
L 300.888352 95.150778 
L 301.19517 95.201724 
L 301.808807 95.09134 
L 302.422443 95.184742 
L 303.03608 95.065867 
L 303.342898 95.218707 
L 303.956534 95.159269 
L 306.717898 95.125305 
L 307.024716 95.065867 
L 307.331534 95.278144 
L 307.638352 95.057376 
L 310.706534 95.227198 
L 311.013352 94.989447 
L 311.626989 95.057376 
L 312.240625 95.09134 
L 313.16108 95.133796 
L 313.467898 95.303618 
L 313.774716 95.184742 
L 314.388352 95.201724 
L 314.69517 95.082849 
L 315.001989 95.24418 
L 315.615625 95.133796 
L 316.53608 95.16776 
L 316.842898 95.295127 
L 317.149716 95.210216 
L 317.456534 95.269653 
L 317.763352 95.142287 
L 318.07017 95.261162 
L 318.376989 95.031903 
L 318.683807 95.252671 
L 319.297443 95.006429 
L 319.91108 95.303618 
L 320.217898 95.099831 
L 320.524716 95.176251 
L 320.831534 95.048885 
L 322.979261 95.24418 
L 323.28608 95.065867 
L 323.592898 95.295127 
L 323.899716 94.930009 
L 324.206534 95.210216 
L 324.513352 94.930009 
L 324.82017 95.159269 
L 325.126989 95.24418 
L 325.433807 95.099831 
L 326.354261 95.184742 
L 326.66108 95.252671 
L 326.967898 95.116813 
L 330.956534 95.159269 
L 331.263352 94.997938 
L 331.876989 95.210216 
L 332.183807 95.150778 
L 332.490625 95.278144 
L 332.797443 95.108322 
L 333.41108 95.040394 
L 333.717898 95.133796 
L 334.024716 95.040394 
L 335.251989 95.227198 
L 335.558807 95.057376 
L 335.865625 95.227198 
L 336.172443 95.09134 
L 336.78608 95.184742 
L 337.092898 95.057376 
L 338.013352 95.346073 
L 338.32017 95.074358 
L 339.240625 95.295127 
L 339.547443 95.074358 
L 339.854261 95.193233 
L 340.16108 95.074358 
L 341.081534 95.074358 
L 341.388352 94.997938 
L 341.69517 95.150778 
L 342.615625 95.006429 
L 342.922443 95.142287 
L 343.229261 94.955483 
L 343.53608 95.125305 
L 343.842898 95.040394 
L 344.149716 95.16776 
L 344.456534 95.031903 
L 344.763352 95.09134 
L 345.07017 95.01492 
L 345.376989 95.125305 
L 345.683807 94.972465 
L 345.990625 95.184742 
L 346.297443 95.023411 
L 346.604261 95.108322 
L 346.91108 95.031903 
L 347.217898 95.184742 
L 347.831534 94.997938 
L 348.751989 95.210216 
L 349.058807 94.9385 
L 349.365625 95.16776 
L 349.979261 95.116813 
L 350.592898 95.108322 
L 350.899716 95.159269 
L 351.206534 95.031903 
L 351.82017 95.082849 
L 352.126989 95.057376 
L 352.433807 95.227198 
L 355.501989 95.218707 
L 356.422443 95.252671 
L 356.729261 95.312109 
L 357.03608 95.065867 
L 357.342898 95.218707 
L 357.649716 95.150778 
L 358.263352 95.227198 
L 358.57017 95.150778 
L 358.876989 95.24418 
L 361.331534 95.116813 
L 361.638352 95.193233 
L 362.251989 95.09134 
L 362.558807 95.133796 
L 363.172443 95.048885 
L 363.78608 95.150778 
L 364.092898 95.031903 
L 364.399716 95.201724 
L 365.013352 95.031903 
L 365.32017 95.142287 
L 365.626989 107.861949 
L 365.933807 157.016907 
L 366.240625 173.68493 
L 366.547443 173.319813 
L 366.547443 173.319813 
" clip-path="url(#p7e9a624115)" style="fill: none; stroke: #ff7f0e; stroke-width: 1.5; stroke-linecap: square"/>
   </g>
   <g id="line2d_15">
    <path d="M 62.183807 214.136514 
L 62.490625 214.73089 
L 63.104261 214.518613 
L 63.41108 214.756364 
L 63.717898 213.64403 
L 64.024716 213.465717 
L 64.331534 214.510122 
L 64.638352 214.467666 
L 65.251989 214.612015 
L 67.706534 214.595033 
L 69.240625 214.49314 
L 69.547443 214.620506 
L 69.854261 214.476157 
L 70.467898 214.578051 
L 71.081534 214.527104 
L 71.388352 214.595033 
L 71.69517 214.442193 
L 72.001989 214.612015 
L 72.308807 214.49314 
L 72.615625 214.535595 
L 72.922443 214.459175 
L 73.229261 214.552577 
L 73.53608 214.476157 
L 73.842898 214.527104 
L 74.149716 214.408229 
L 74.456534 213.431753 
L 74.763352 211.63164 
L 75.07017 211.291996 
L 75.376989 211.504274 
L 75.683807 211.020281 
L 75.990625 211.563711 
L 76.297443 210.502324 
L 76.604261 209.899456 
L 76.91108 210.875933 
L 77.524716 211.911846 
L 77.831534 207.572896 
L 78.44517 209.508866 
L 78.751989 209.364517 
L 79.672443 209.457919 
L 79.979261 209.483393 
L 80.28608 209.339044 
L 80.592898 209.415464 
L 80.899716 209.296589 
L 81.206534 209.3815 
L 81.82017 209.356026 
L 83.047443 209.373008 
L 83.66108 209.356026 
L 84.581534 209.347535 
L 87.342898 209.30508 
L 91.638352 209.339044 
L 93.172443 209.288097 
L 94.092898 209.30508 
L 98.081534 209.322062 
L 99.308807 209.30508 
L 99.922443 209.322062 
L 102.990625 209.296589 
L 126.308807 209.356026 
L 126.615625 209.423955 
L 126.922443 209.296589 
L 129.683807 209.389991 
L 129.990625 209.30508 
L 131.217898 209.330553 
L 134.592898 209.330553 
L 135.82017 209.330553 
L 139.501989 209.364517 
L 140.115625 209.313571 
L 218.967898 209.313571 
L 219.274716 210.120225 
L 219.581534 214.051603 
L 219.888352 214.425211 
L 220.19517 213.160037 
L 220.501989 214.280862 
L 220.808807 214.365773 
L 221.115625 213.949709 
L 221.422443 211.682587 
L 221.729261 211.232559 
L 222.03608 210.400431 
L 222.342898 210.485342 
L 222.649716 209.77209 
L 222.956534 210.273065 
L 223.263352 211.045754 
L 223.57017 210.273065 
L 223.876989 207.997451 
L 224.490625 209.517357 
L 224.797443 209.330553 
L 225.41108 209.551321 
L 225.717898 209.347535 
L 226.331534 209.339044 
L 226.638352 209.296589 
L 227.558807 209.46641 
L 227.865625 209.279606 
L 228.172443 209.389991 
L 229.092898 209.330553 
L 229.706534 209.330553 
L 230.626989 209.313571 
L 231.240625 209.322062 
L 365.32017 209.330553 
L 365.626989 210.137207 
L 365.933807 212.361874 
L 366.240625 213.151546 
L 366.547443 213.109091 
L 366.547443 213.109091 
" clip-path="url(#p7e9a624115)" style="fill: none; stroke: #2ca02c; stroke-width: 1.5; stroke-linecap: square"/>
   </g>
   <g id="patch_3">
    <path d="M 46.965625 224.64 
L 46.965625 7.2 
" style="fill: none; stroke: #000000; stroke-width: 0.8; stroke-linejoin: miter; stroke-linecap: square"/>
   </g>
   <g id="patch_4">
    <path d="M 381.765625 224.64 
L 381.765625 7.2 
" style="fill: none; stroke: #000000; stroke-width: 0.8; stroke-linejoin: miter; stroke-linecap: square"/>
   </g>
   <g id="patch_5">
    <path d="M 46.965625 224.64 
L 381.765625 224.64 
" style="fill: none; stroke: #000000; stroke-width: 0.8; stroke-linejoin: miter; stroke-linecap: square"/>
   </g>
   <g id="patch_6">
    <path d="M 46.965625 7.2 
L 381.765625 7.2 
" style="fill: none; stroke: #000000; stroke-width: 0.8; stroke-linejoin: miter; stroke-linecap: square"/>
   </g>
   <g id="legend_1">
    <g id="patch_7">
     <path d="M 405.505625 59.234375 
L 481.019688 59.234375 
Q 483.019688 59.234375 483.019688 57.234375 
L 483.019688 14.2 
Q 483.019688 12.2 481.019688 12.2 
L 405.505625 12.2 
Q 403.505625 12.2 403.505625 14.2 
L 403.505625 57.234375 
Q 403.505625 59.234375 405.505625 59.234375 
z
" style="fill: #ffffff; opacity: 0.8; stroke: #cccccc; stroke-linejoin: miter"/>
    </g>
    <g id="line2d_16">
     <path d="M 407.505625 20.298438 
L 417.505625 20.298438 
L 427.505625 20.298438 
" style="fill: none; stroke: #1f77b4; stroke-width: 1.5; stroke-linecap: square"/>
    </g>
    <g id="text_15">
     <!-- Power -->
     <g transform="translate(435.505625 23.798438)scale(0.1 -0.1)">
      <use xlink:href="#DejaVuSans-50"/>
      <use xlink:href="#DejaVuSans-6f" x="56.677734"/>
      <use xlink:href="#DejaVuSans-77" x="117.859375"/>
      <use xlink:href="#DejaVuSans-65" x="199.646484"/>
      <use xlink:href="#DejaVuSans-72" x="261.169922"/>
     </g>
    </g>
    <g id="line2d_17">
     <path d="M 407.505625 34.976563 
L 417.505625 34.976563 
L 427.505625 34.976563 
" style="fill: none; stroke: #ff7f0e; stroke-width: 1.5; stroke-linecap: square"/>
    </g>
    <g id="text_16">
     <!-- Pkg Pwr -->
     <g transform="translate(435.505625 38.476563)scale(0.1 -0.1)">
      <defs>
       <path id="DejaVuSans-6b" d="M 581 4863 
L 1159 4863 
L 1159 1991 
L 2875 3500 
L 3609 3500 
L 1753 1863 
L 3688 0 
L 2938 0 
L 1159 1709 
L 1159 0 
L 581 0 
L 581 4863 
z
" transform="scale(0.015625)"/>
       <path id="DejaVuSans-67" d="M 2906 1791 
Q 2906 2416 2648 2759 
Q 2391 3103 1925 3103 
Q 1463 3103 1205 2759 
Q 947 2416 947 1791 
Q 947 1169 1205 825 
Q 1463 481 1925 481 
Q 2391 481 2648 825 
Q 2906 1169 2906 1791 
z
M 3481 434 
Q 3481 -459 3084 -895 
Q 2688 -1331 1869 -1331 
Q 1566 -1331 1297 -1286 
Q 1028 -1241 775 -1147 
L 775 -588 
Q 1028 -725 1275 -790 
Q 1522 -856 1778 -856 
Q 2344 -856 2625 -561 
Q 2906 -266 2906 331 
L 2906 616 
Q 2728 306 2450 153 
Q 2172 0 1784 0 
Q 1141 0 747 490 
Q 353 981 353 1791 
Q 353 2603 747 3093 
Q 1141 3584 1784 3584 
Q 2172 3584 2450 3431 
Q 2728 3278 2906 2969 
L 2906 3500 
L 3481 3500 
L 3481 434 
z
" transform="scale(0.015625)"/>
      </defs>
      <use xlink:href="#DejaVuSans-50"/>
      <use xlink:href="#DejaVuSans-6b" x="60.302734"/>
      <use xlink:href="#DejaVuSans-67" x="118.212891"/>
      <use xlink:href="#DejaVuSans-20" x="181.689453"/>
      <use xlink:href="#DejaVuSans-50" x="213.476562"/>
      <use xlink:href="#DejaVuSans-77" x="273.779297"/>
      <use xlink:href="#DejaVuSans-72" x="355.566406"/>
     </g>
    </g>
    <g id="line2d_18">
     <path d="M 407.505625 49.654688 
L 417.505625 49.654688 
L 427.505625 49.654688 
" style="fill: none; stroke: #2ca02c; stroke-width: 1.5; stroke-linecap: square"/>
    </g>
    <g id="text_17">
     <!-- RAM Pwr -->
     <g transform="translate(435.505625 53.154688)scale(0.1 -0.1)">
      <defs>
       <path id="DejaVuSans-52" d="M 2841 2188 
Q 3044 2119 3236 1894 
Q 3428 1669 3622 1275 
L 4263 0 
L 3584 0 
L 2988 1197 
Q 2756 1666 2539 1819 
Q 2322 1972 1947 1972 
L 1259 1972 
L 1259 0 
L 628 0 
L 628 4666 
L 2053 4666 
Q 2853 4666 3247 4331 
Q 3641 3997 3641 3322 
Q 3641 2881 3436 2590 
Q 3231 2300 2841 2188 
z
M 1259 4147 
L 1259 2491 
L 2053 2491 
Q 2509 2491 2742 2702 
Q 2975 2913 2975 3322 
Q 2975 3731 2742 3939 
Q 2509 4147 2053 4147 
L 1259 4147 
z
" transform="scale(0.015625)"/>
       <path id="DejaVuSans-41" d="M 2188 4044 
L 1331 1722 
L 3047 1722 
L 2188 4044 
z
M 1831 4666 
L 2547 4666 
L 4325 0 
L 3669 0 
L 3244 1197 
L 1141 1197 
L 716 0 
L 50 0 
L 1831 4666 
z
" transform="scale(0.015625)"/>
       <path id="DejaVuSans-4d" d="M 628 4666 
L 1569 4666 
L 2759 1491 
L 3956 4666 
L 4897 4666 
L 4897 0 
L 4281 0 
L 4281 4097 
L 3078 897 
L 2444 897 
L 1241 4097 
L 1241 0 
L 628 0 
L 628 4666 
z
" transform="scale(0.015625)"/>
      </defs>
      <use xlink:href="#DejaVuSans-52"/>
      <use xlink:href="#DejaVuSans-41" x="65.482422"/>
      <use xlink:href="#DejaVuSans-4d" x="133.890625"/>
      <use xlink:href="#DejaVuSans-20" x="220.169922"/>
      <use xlink:href="#DejaVuSans-50" x="251.957031"/>
      <use xlink:href="#DejaVuSans-77" x="312.259766"/>
      <use xlink:href="#DejaVuSans-72" x="394.046875"/>
     </g>
    </g>
   </g>
  </g>
 </g>
 <defs>
  <clipPath id="p7e9a624115">
   <rect x="46.965625" y="7.2" width="334.8" height="217.44"/>
  </clipPath>
 </defs>
</svg>
